<?xml version="1.0" encoding="utf-8"?>
<!-- Generator: Adobe Illustrator 19.0.0, SVG Export Plug-In . SVG Version: 6.00 Build 0)  -->
<svg version="1.1" id="Capa_1" xmlns="http://www.w3.org/2000/svg" xmlns:xlink="http://www.w3.org/1999/xlink" x="0px" y="0px"
	 viewBox="-49 177.9 511.6 438.5" style="enable-background:new -49 177.9 511.6 438.5;" xml:space="preserve">
<style type="text/css">
	.st0{fill:#FFFFFF;}
</style>
<g>
	<g>
		<path class="st0" d="M451.9,188.6c-7.1-7.1-15.7-10.7-25.8-10.7H-12.5c-10.1,0-18.7,3.6-25.8,10.7c-7.1,7.1-10.7,15.8-10.7,25.8
			v365.4c0,10.1,3.6,18.7,10.7,25.8c7.1,7.1,15.8,10.7,25.8,10.7h438.5c10.1,0,18.7-3.6,25.8-10.7c7.1-7.1,10.7-15.7,10.7-25.8
			V214.5C462.6,204.4,459.1,195.8,451.9,188.6z M24.1,196.2h109.6v36.5H24.1V196.2z M426.1,579.9H-12.5v-36.5h438.5L426.1,579.9
			L426.1,579.9z M97.2,416c0-30.3,10.7-56.1,32.1-77.5c21.4-21.4,47.3-32.1,77.5-32.1c30.3,0,56.1,10.7,77.5,32.1
			c21.4,21.4,32.1,47.3,32.1,77.5c0,30.3-10.7,56.1-32.1,77.5c-21.4,21.4-47.3,32.1-77.5,32.1c-30.3,0-56.1-10.7-77.5-32.1
			C107.9,472.1,97.2,446.3,97.2,416z M426.1,253.9v33.7H-12.5V251h183.9l18.3-36.5h236.4L426.1,253.9L426.1,253.9z"/>
		<path class="st0" d="M258.5,467.7c14.3-14.3,21.4-31.5,21.4-51.7c0-20.2-7.1-37.4-21.4-51.7c-14.3-14.3-31.5-21.4-51.7-21.4
			c-20.2,0-37.4,7.1-51.7,21.4c-14.3,14.3-21.4,31.5-21.4,51.7c0,20.2,7.1,37.4,21.4,51.7c14.3,14.3,31.5,21.4,51.7,21.4
			C227,489.1,244.2,482,258.5,467.7z M187.4,396c-5.3,5.3-8,11.8-8,19.4c0,2.7-0.9,4.9-2.6,6.6c-1.7,1.7-3.9,2.6-6.6,2.6
			c-2.7,0-4.9-0.9-6.6-2.6c-1.7-1.7-2.6-3.9-2.6-6.6c0-12.6,4.5-23.3,13.4-32.3c8.9-8.9,19.7-13.4,32.3-13.4c2.7,0,4.9,0.9,6.6,2.6
			c1.7,1.7,2.6,3.9,2.6,6.6c0,2.7-0.9,4.9-2.6,6.6c-1.7,1.7-3.9,2.6-6.6,2.6C199.2,388.1,192.7,390.7,187.4,396z"/>
	</g>
</g>
</svg>
