
<svg xmlns="http://www.w3.org/2000/svg" version="1.1" xmlns:xlink="http://www.w3.org/1999/xlink" preserveAspectRatio="none" x="0px" y="0px" width="301px" height="161px" viewBox="0 0 301 161">
<defs>
<g id="Layer0_0_FILL">
<path fill="#F1592A" stroke="none" d="
M 89.05 57.4
L 94.55 57.4 94.55 31.05 73.7 31.05 73.7 57.4 78.45 57.4 66.4 76.35 66.4 57.4 70.05 57.4 70.05 31.05 47.15 31.05 47.15 57.4 52.05 57.4 52.05 106.4 47.15 106.4 47.15 133.85 70.05 133.85 70.05 106.4 66.4 106.4 66.4 93.1 70.05 85.9 77.75 106.4 73.7 106.4 73.7 133.85 96.05 133.85 96.05 106.4 91.9 106.4 79.45 73.5 89.05 57.4
M 115.1 66.6
L 115.1 57.4 100.3 57.4 100.3 77.85 104.35 77.85 104.35 112.25 100.3 112.25 100.3 133.85 119.6 133.85 119.6 112.25 115.1 112.25 115.1 86.6
Q 115.1 76.8 117.65 76.8 121.3 76.8 121.3 87.6 121.3 89.45 120.7 93.75
L 129.45 93.75
Q 130.25 85.75 130.25 74.1 130.25 56.25 122.5 56.25 117.5 56.25 115.1 66.6
M 241.45 113.3
L 241.45 133.85 255.8 133.85 255.8 113.3 241.45 113.3
M 228.6 57.4
L 213.75 57.4 213.75 77.85 217.85 77.85 217.85 112.25 213.75 112.25 213.75 133.85 233 133.85 233 112.25 228.6 112.25 228.6 57.4
M 165.2 97.45
L 165.3 92.3
Q 165.3 71.7 162.1 63.95 158.8 56.25 150.05 56.25 141.1 56.25 138 63.7 134.7 71.2 134.7 91.9 134.7 119.05 137.65 126.95 140.5 134.75 150.5 134.75 164.8 134.75 164.8 111.5 164.8 105.4 164.35 101
L 153.95 101 153.9 105.15
Q 153.9 112.25 150.1 112.4 146.9 112.55 146.4 108.8
L 146.2 97.45 165.2 97.45
M 153.95 88.95
L 145.95 88.95
Q 145.8 86.45 145.8 84.85 145.8 76.8 150.05 76.8 153.95 76.8 153.95 83.5
L 153.95 88.95
M 185.45 66.7
L 185.45 57.4 171.1 57.4 171.1 77.85 175.2 77.85 175.2 112.25 171.1 112.25 171.1 133.85 189.3 133.85 189.3 112.25 185.45 112.25 185.45 90.85
Q 185.45 76.8 191.4 76.8 194.85 76.8 194.85 84.2
L 194.95 112.25 191.8 112.25 191.8 133.85 210.05 133.85 210.05 112.25 205.7 112.25 205.7 72.15
Q 205.7 56.25 196.45 56.25 189.55 56.25 185.45 66.7
M 227.85 48.3
L 227.85 31.05 217.1 31.05 217.1 48.3 227.85 48.3
M 255.8 58.35
L 255.8 31.05 241.45 31.05 241.45 57.15 246.2 104.95 250.3 104.95 255.8 58.35 Z"/>
</g>

<path id="Layer0_0_1_STROKES" stroke="#FFFE33" stroke-width="2" stroke-linejoin="round" stroke-linecap="round" fill="none" d="
M 255.8 31.05
L 255.8 58.35 250.3 104.95 246.2 104.95 241.45 57.15 241.45 31.05 255.8 31.05 Z
M 227.85 31.05
L 227.85 48.3 217.1 48.3 217.1 31.05 227.85 31.05 Z
M 210.05 112.25
L 210.05 133.85 191.8 133.85 191.8 112.25 194.95 112.25 194.85 84.2
Q 194.85 76.8 191.4 76.8 185.45 76.8 185.45 90.85
L 185.45 112.25 189.3 112.25 189.3 133.85 171.1 133.85 171.1 112.25 175.2 112.25 175.2 77.85 171.1 77.85 171.1 57.4 185.45 57.4 185.45 66.7
Q 189.55 56.25 196.45 56.25 205.7 56.25 205.7 72.15
L 205.7 112.25 210.05 112.25 Z
M 164.35 101
Q 164.8 105.4 164.8 111.5 164.8 134.75 150.5 134.75 140.5 134.75 137.65 126.95 134.7 119.05 134.7 91.9 134.7 71.2 138 63.7 141.1 56.25 150.05 56.25 158.8 56.25 162.1 63.95 165.3 71.7 165.3 92.3
L 165.2 97.45 146.2 97.45 146.4 108.8
Q 146.9 112.55 150.1 112.4 153.9 112.25 153.9 105.15
L 153.95 101 164.35 101 Z
M 228.6 57.4
L 228.6 112.25 233 112.25 233 133.85 213.75 133.85 213.75 112.25 217.85 112.25 217.85 77.85 213.75 77.85 213.75 57.4 228.6 57.4 Z
M 255.8 113.3
L 255.8 133.85 241.45 133.85 241.45 113.3 255.8 113.3 Z
M 100.3 57.4
L 115.1 57.4 115.1 66.6
Q 117.5 56.25 122.5 56.25 130.25 56.25 130.25 74.1 130.25 85.75 129.45 93.75
L 120.7 93.75
Q 121.3 89.45 121.3 87.6 121.3 76.8 117.65 76.8 115.1 76.8 115.1 86.6
L 115.1 112.25 119.6 112.25 119.6 133.85 100.3 133.85 100.3 112.25 104.35 112.25 104.35 77.85 100.3 77.85 100.3 57.4 Z
M 94.55 31.05
L 94.55 57.4 89.05 57.4 79.45 73.5 91.9 106.4 96.05 106.4 96.05 133.85 73.7 133.85 73.7 106.4 77.75 106.4 70.05 85.9 66.4 93.1 66.4 106.4 70.05 106.4 70.05 133.85 47.15 133.85 47.15 106.4 52.05 106.4 52.05 57.4 47.15 57.4 47.15 31.05 70.05 31.05 70.05 57.4 66.4 57.4 66.4 76.35 78.45 57.4 73.7 57.4 73.7 31.05 94.55 31.05 Z
M 145.95 88.95
L 153.95 88.95 153.95 83.5
Q 153.95 76.8 150.05 76.8 145.8 76.8 145.8 84.85 145.8 86.45 145.95 88.95 Z"/>
</defs>

<g transform="matrix( 1, 0, 0, 1, 0,0) ">
<use xlink:href="#Layer0_0_FILL"/>

<use xlink:href="#Layer0_0_1_STROKES"/>
</g>
</svg>
