
<svg xmlns="http://www.w3.org/2000/svg" version="1.1" xmlns:xlink="http://www.w3.org/1999/xlink" preserveAspectRatio="none" x="0px" y="0px" width="301px" height="161px" viewBox="0 0 301 161">
<defs>
<g id="Layer0_0_FILL">
<path fill="#F1592A" stroke="none" d="
M 30.45 25.1
Q 18.4 25.1 14.5 33.25 10.6 41.3 10.6 66.5
L 10.6 88.75
Q 10.6 112.25 14.55 120.35 18.45 128.3 29.95 128.3 41.25 128.3 45.35 119.95 49.45 111.6 49.45 88.75
L 49.45 66.65
Q 49.45 41.9 45.65 33.55 41.8 25.1 30.45 25.1
M 30.05 52.6
Q 34.2 52.6 34.5 58.9
L 34.7 85.3
Q 34.7 100.05 30.15 100.05 25.35 100.05 25.35 85.45
L 25.35 66.85
Q 25.35 52.6 30.05 52.6
M 71.5 43.5
L 75.75 43.5 75.75 58.5
Q 72.6 51.25 66.65 51.25 56.1 51.25 56.1 80.4
L 56.1 101.6
Q 56.1 127.65 66.8 127.65 71.95 127.65 74.95 122.65 76.05 120.85 77.6 119.8
L 77.6 126.7 90.1 126.7 90.1 105.7 86.25 105.7 86.25 26.7 71.5 26.7 71.5 43.5
M 67.1 97.7
L 67.2 80.8
Q 67.2 70.95 71.45 71.25 75.4 71.55 75.4 92.65 75.4 107.45 71.45 107.65 67.1 107.9 67.1 97.7
M 153.05 52.3
L 153.05 59.45
Q 149.9 51.35 143.5 51.35 133.5 51.35 133.5 71.55 133.5 85.4 143.8 91.6
L 147.4 93.8
Q 152.5 96.9 152.5 102.55 152.5 107.65 148.05 107.65 143.1 107.65 143.1 97.7
L 143.1 96.25 134.6 96.25 134.6 126.7 143.1 126.7 143.1 119.8
Q 145.85 127.65 152.8 127.65 163.3 127.65 163.3 104.3 163.3 90.9 152.5 84.6
L 147.05 81.45
Q 143.2 79.25 143.2 75.65 143.2 71.35 147.55 71.35 153.05 71.35 153.05 79.1
L 153.05 81.05 161.55 81.05 161.55 52.3 153.05 52.3
M 111.65 72.3
L 115.9 72.3 115.9 92.2
Q 115.9 107.6 111 107.6 106.8 107.6 106.8 95.65
L 106.8 52.3 92.3 52.3 92.3 72.3 96.35 72.3 96.35 107.35
Q 96.35 127.6 106.65 127.6 113.9 127.6 116.55 117.55
L 116.55 126.7 130.55 126.7 130.55 105.7 126.35 105.7 126.35 52.3 111.65 52.3 111.65 72.3
M 193.1 69.2
Q 193.1 75.65 194.2 80.5
L 204.25 80.5
Q 203.9 78.15 203.9 76.95 203.9 71.25 207.75 71.25 211.4 71.25 211.4 76 211.4 79.85 205.35 83.1 193.35 89.8 193.35 102.8 193.35 127.65 203.75 127.65 209.5 127.65 212 120.6 214.8 127.65 221.25 127.65 224.25 127.65 227.3 125.8
L 227.3 105.15
Q 226.15 105.9 225.55 105.9 222.5 105.9 222.5 96.95
L 222.5 69.8
Q 222.5 51.25 208.35 51.25 193.1 51.25 193.1 69.2
M 212 90.45
L 212 96.9
Q 212 105.9 207.4 105.9 203.05 105.9 203.05 100.75 203.05 94.85 212 90.45
M 176.7 30.55
L 176.4 33.75
Q 175.4 47.1 166.1 52.3
L 166.1 72.3 170.05 72.3 169.8 110.3
Q 169.8 127.75 181.4 127.75 184.1 127.75 189.3 125.8
L 189.3 105.85
Q 186.6 107.75 184.75 107.75 180.6 107.75 180.6 101.45
L 180.5 72.3 187.3 72.3 187.3 52.3 180.5 52.3 180.5 29.3 176.85 29.3
Q 176.7 30.3 176.7 30.55
M 272.35 72.3
L 276.3 72.3 276.3 105.7 272.35 105.7 272.35 126.7 291.1 126.7 291.1 105.7 286.75 105.7 286.75 52.3 272.35 52.3 272.35 72.3
M 255.55 51.25
Q 248.85 51.25 244.9 61.35
L 244.9 52.3 230.9 52.3 230.9 72.3 234.85 72.3 234.85 105.7 230.9 105.7 230.9 126.7 248.6 126.7 248.6 105.7 244.9 105.7 244.9 84.9
Q 244.9 71.25 250.65 71.25 254.05 71.25 254.05 78.45
L 254.1 105.7 251.05 105.7 251.05 126.7 268.75 126.7 268.75 105.7 264.6 105.7 264.6 66.7
Q 264.6 51.25 255.55 51.25
M 286.1 43.5
L 286.1 26.7 275.65 26.7 275.65 43.5 286.1 43.5 Z"/>
</g>

<path id="Layer0_0_1_STROKES" stroke="#FFFE33" stroke-width="2" stroke-linejoin="round" stroke-linecap="round" fill="none" d="
M 286.1 26.7
L 286.1 43.5 275.65 43.5 275.65 26.7 286.1 26.7 Z
M 268.75 105.7
L 268.75 126.7 251.05 126.7 251.05 105.7 254.1 105.7 254.05 78.45
Q 254.05 71.25 250.65 71.25 244.9 71.25 244.9 84.9
L 244.9 105.7 248.6 105.7 248.6 126.7 230.9 126.7 230.9 105.7 234.85 105.7 234.85 72.3 230.9 72.3 230.9 52.3 244.9 52.3 244.9 61.35
Q 248.85 51.25 255.55 51.25 264.6 51.25 264.6 66.7
L 264.6 105.7 268.75 105.7 Z
M 286.75 52.3
L 286.75 105.7 291.1 105.7 291.1 126.7 272.35 126.7 272.35 105.7 276.3 105.7 276.3 72.3 272.35 72.3 272.35 52.3 286.75 52.3 Z
M 187.3 52.3
L 187.3 72.3 180.5 72.3 180.6 101.45
Q 180.6 107.75 184.75 107.75 186.6 107.75 189.3 105.85
L 189.3 125.8
Q 184.1 127.75 181.4 127.75 169.8 127.75 169.8 110.3
L 170.05 72.3 166.1 72.3 166.1 52.3
Q 175.4 47.1 176.4 33.75
L 176.7 30.55
Q 176.7 30.3 176.85 29.3
L 180.5 29.3 180.5 52.3 187.3 52.3 Z
M 227.3 105.15
L 227.3 125.8
Q 224.25 127.65 221.25 127.65 214.8 127.65 212 120.6 209.5 127.65 203.75 127.65 193.35 127.65 193.35 102.8 193.35 89.8 205.35 83.1 211.4 79.85 211.4 76 211.4 71.25 207.75 71.25 203.9 71.25 203.9 76.95 203.9 78.15 204.25 80.5
L 194.2 80.5
Q 193.1 75.65 193.1 69.2 193.1 51.25 208.35 51.25 222.5 51.25 222.5 69.8
L 222.5 96.95
Q 222.5 105.9 225.55 105.9 226.15 105.9 227.3 105.15 Z
M 212 90.45
Q 203.05 94.85 203.05 100.75 203.05 105.9 207.4 105.9 212 105.9 212 96.9
L 212 90.45 Z
M 126.35 52.3
L 126.35 105.7 130.55 105.7 130.55 126.7 116.55 126.7 116.55 117.55
Q 113.9 127.6 106.65 127.6 96.35 127.6 96.35 107.35
L 96.35 72.3 92.3 72.3 92.3 52.3 106.8 52.3 106.8 95.65
Q 106.8 107.6 111 107.6 115.9 107.6 115.9 92.2
L 115.9 72.3 111.65 72.3 111.65 52.3 126.35 52.3 Z
M 161.55 52.3
L 161.55 81.05 153.05 81.05 153.05 79.1
Q 153.05 71.35 147.55 71.35 143.2 71.35 143.2 75.65 143.2 79.25 147.05 81.45
L 152.5 84.6
Q 163.3 90.9 163.3 104.3 163.3 127.65 152.8 127.65 145.85 127.65 143.1 119.8
L 143.1 126.7 134.6 126.7 134.6 96.25 143.1 96.25 143.1 97.7
Q 143.1 107.65 148.05 107.65 152.5 107.65 152.5 102.55 152.5 96.9 147.4 93.8
L 143.8 91.6
Q 133.5 85.4 133.5 71.55 133.5 51.35 143.5 51.35 149.9 51.35 153.05 59.45
L 153.05 52.3 161.55 52.3 Z
M 86.25 26.7
L 86.25 105.7 90.1 105.7 90.1 126.7 77.6 126.7 77.6 119.8
Q 76.05 120.85 74.95 122.65 71.95 127.65 66.8 127.65 56.1 127.65 56.1 101.6
L 56.1 80.4
Q 56.1 51.25 66.65 51.25 72.6 51.25 75.75 58.5
L 75.75 43.5 71.5 43.5 71.5 26.7 86.25 26.7 Z
M 10.6 88.75
L 10.6 66.5
Q 10.6 41.3 14.5 33.25 18.4 25.1 30.45 25.1 41.8 25.1 45.65 33.55 49.45 41.9 49.45 66.65
L 49.45 88.75
Q 49.45 111.6 45.35 119.95 41.25 128.3 29.95 128.3 18.45 128.3 14.55 120.35 10.6 112.25 10.6 88.75 Z
M 25.35 66.85
L 25.35 85.45
Q 25.35 100.05 30.15 100.05 34.7 100.05 34.7 85.3
L 34.5 58.9
Q 34.2 52.6 30.05 52.6 25.35 52.6 25.35 66.85 Z
M 71.45 71.25
Q 67.2 70.95 67.2 80.8
L 67.1 97.7
Q 67.1 107.9 71.45 107.65 75.4 107.45 75.4 92.65 75.4 71.55 71.45 71.25 Z"/>
</defs>

<g transform="matrix( 1, 0, 0, 1, 0,0) ">
<use xlink:href="#Layer0_0_FILL"/>

<use xlink:href="#Layer0_0_1_STROKES"/>
</g>
</svg>
