
<svg xmlns="http://www.w3.org/2000/svg" version="1.1" xmlns:xlink="http://www.w3.org/1999/xlink" preserveAspectRatio="none" x="0px" y="0px" width="301px" height="161px" viewBox="0 0 301 161">
<defs>
<g id="Layer1_0_FILL">
<path fill="#F1592A" stroke="none" d="
M 72.15 32.4
Q 67.8 26.2 54.9 26.2
L 34.95 26.2 34.95 51.8 39.75 51.8 39.75 99.45 34.95 99.45 34.95 126.2 59.15 126.2 59.15 99.45 53.75 99.45 53.75 83.15 56.9 83.15
Q 68.75 83.15 72.65 78 76.45 72.8 76.45 56.85 76.45 38.55 72.15 32.4
M 53.75 51.8
L 55.75 51.8
Q 63 51.8 63 62.5 63 72.15 56.75 72.15
L 53.75 72.15 53.75 51.8
M 96.25 50.75
Q 87.15 50.75 84.2 56.1 81.2 61.45 81.2 77.65
L 81.2 101.75
Q 81.2 127.1 96 127.1 111.15 127.1 111.15 106.65
L 111.25 78.35
Q 111.25 61.75 108.25 56.25 105.25 50.75 96.25 50.75
M 91.7 93.3
L 91.7 83.8
Q 91.7 70.75 96.3 70.75 100.7 70.75 100.7 76.9
L 100.75 92.3
Q 100.75 105.35 96.15 105.35 91.7 105.35 91.7 93.3
M 233.3 71.8
L 237.25 71.8 237.25 105.2 233.3 105.2 233.3 126.2 252.05 126.2 252.05 105.2 247.7 105.2 247.7 51.8 233.3 51.8 233.3 71.8
M 247.05 43
L 247.05 26.2 236.6 26.2 236.6 43 247.05 43
M 194.35 51.8
L 194.35 71.8 197.7 71.8 206.65 126.2 219.1 126.2 226.2 71.8 229.7 71.8 229.7 51.8 215 51.8 215 71.8 218.15 71.8 213.45 107.5 208.05 71.8 212.05 71.8 212.05 51.8 194.35 51.8
M 174.75 50.75
Q 165.65 50.75 162.7 56.1 159.7 61.45 159.7 77.65
L 159.7 101.75
Q 159.7 127.1 174.5 127.1 189.65 127.1 189.65 106.65
L 189.75 78.35
Q 189.75 61.75 186.75 56.25 183.75 50.75 174.75 50.75
M 179.2 76.9
L 179.25 92.3
Q 179.25 105.35 174.65 105.35 170.2 105.35 170.2 93.3
L 170.2 83.8
Q 170.2 70.75 174.8 70.75 179.2 70.75 179.2 76.9
M 117.25 51.8
L 117.25 71.8 121.2 71.8 121.2 105.2 117.25 105.2 117.25 126.2 134.95 126.2 134.95 105.2 131.25 105.2 131.25 84.4
Q 131.25 70.75 137 70.75 140.4 70.75 140.4 77.95
L 140.45 105.2 137.4 105.2 137.4 126.2 155.1 126.2 155.1 105.2 150.95 105.2 150.95 66.2
Q 150.95 50.75 141.9 50.75 135.2 50.75 131.25 60.85
L 131.25 51.8 117.25 51.8 Z"/>
</g>

<path id="Layer1_0_1_STROKES" stroke="#FFFE33" stroke-width="2" stroke-linejoin="round" stroke-linecap="round" fill="none" d="
M 247.05 26.2
L 247.05 43 236.6 43 236.6 26.2 247.05 26.2 Z
M 229.7 51.8
L 229.7 71.8 226.2 71.8 219.1 126.2 206.65 126.2 197.7 71.8 194.35 71.8 194.35 51.8 212.05 51.8 212.05 71.8 208.05 71.8 213.45 107.5 218.15 71.8 215 71.8 215 51.8 229.7 51.8 Z
M 159.7 101.75
L 159.7 77.65
Q 159.7 61.45 162.7 56.1 165.65 50.75 174.75 50.75 183.75 50.75 186.75 56.25 189.75 61.75 189.75 78.35
L 189.65 106.65
Q 189.65 127.1 174.5 127.1 159.7 127.1 159.7 101.75 Z
M 179.25 92.3
L 179.2 76.9
Q 179.2 70.75 174.8 70.75 170.2 70.75 170.2 83.8
L 170.2 93.3
Q 170.2 105.35 174.65 105.35 179.25 105.35 179.25 92.3 Z
M 247.7 51.8
L 247.7 105.2 252.05 105.2 252.05 126.2 233.3 126.2 233.3 105.2 237.25 105.2 237.25 71.8 233.3 71.8 233.3 51.8 247.7 51.8 Z
M 155.1 105.2
L 155.1 126.2 137.4 126.2 137.4 105.2 140.45 105.2 140.4 77.95
Q 140.4 70.75 137 70.75 131.25 70.75 131.25 84.4
L 131.25 105.2 134.95 105.2 134.95 126.2 117.25 126.2 117.25 105.2 121.2 105.2 121.2 71.8 117.25 71.8 117.25 51.8 131.25 51.8 131.25 60.85
Q 135.2 50.75 141.9 50.75 150.95 50.75 150.95 66.2
L 150.95 105.2 155.1 105.2 Z
M 81.2 101.75
L 81.2 77.65
Q 81.2 61.45 84.2 56.1 87.15 50.75 96.25 50.75 105.25 50.75 108.25 56.25 111.25 61.75 111.25 78.35
L 111.15 106.65
Q 111.15 127.1 96 127.1 81.2 127.1 81.2 101.75 Z
M 100.75 92.3
L 100.7 76.9
Q 100.7 70.75 96.3 70.75 91.7 70.75 91.7 83.8
L 91.7 93.3
Q 91.7 105.35 96.15 105.35 100.75 105.35 100.75 92.3 Z
M 59.15 99.45
L 59.15 126.2 34.95 126.2 34.95 99.45 39.75 99.45 39.75 51.8 34.95 51.8 34.95 26.2 54.9 26.2
Q 67.8 26.2 72.15 32.4 76.45 38.55 76.45 56.85 76.45 72.8 72.65 78 68.75 83.15 56.9 83.15
L 53.75 83.15 53.75 99.45 59.15 99.45 Z
M 53.75 51.8
L 53.75 72.15 56.75 72.15
Q 63 72.15 63 62.5 63 51.8 55.75 51.8
L 53.75 51.8 Z"/>
</defs>

<g transform="matrix( 1, 0, 0, 1, 0,0) ">
<use xlink:href="#Layer1_0_FILL"/>

<use xlink:href="#Layer1_0_1_STROKES"/>
</g>
</svg>
